<mxfile host="app.diagrams.net" modified="2020-09-26T10:11:29.071Z" agent="5.0 (Macintosh; Intel Mac OS X 10_15_6) AppleWebKit/537.36 (KHTML, like Gecko) Chrome/85.0.4183.121 Safari/537.36" etag="04R7bzKW_5X_-GlRdDDs" version="13.7.5" type="github">
  <diagram id="qWyD6G92Efdeu59iEIwp" name="Page-1">
    <mxGraphModel dx="1186" dy="741" grid="1" gridSize="10" guides="1" tooltips="1" connect="1" arrows="1" fold="1" page="1" pageScale="1" pageWidth="1600" pageHeight="900" math="0" shadow="0">
      <root>
        <mxCell id="0" />
        <mxCell id="1" parent="0" />
        <mxCell id="YOS8QZTMdaJIHrAnO1hu-13" style="edgeStyle=orthogonalEdgeStyle;rounded=0;orthogonalLoop=1;jettySize=auto;html=1;entryX=0.5;entryY=0;entryDx=0;entryDy=0;fontSize=21;" edge="1" parent="1" source="YOS8QZTMdaJIHrAnO1hu-1" target="YOS8QZTMdaJIHrAnO1hu-7">
          <mxGeometry relative="1" as="geometry">
            <Array as="points">
              <mxPoint x="620" y="270" />
              <mxPoint x="620" y="270" />
            </Array>
          </mxGeometry>
        </mxCell>
        <mxCell id="YOS8QZTMdaJIHrAnO1hu-14" style="edgeStyle=orthogonalEdgeStyle;rounded=0;orthogonalLoop=1;jettySize=auto;html=1;entryX=0.5;entryY=0;entryDx=0;entryDy=0;fontSize=21;" edge="1" parent="1" target="YOS8QZTMdaJIHrAnO1hu-3">
          <mxGeometry relative="1" as="geometry">
            <mxPoint x="620" y="270" as="sourcePoint" />
          </mxGeometry>
        </mxCell>
        <mxCell id="YOS8QZTMdaJIHrAnO1hu-16" style="edgeStyle=orthogonalEdgeStyle;rounded=0;orthogonalLoop=1;jettySize=auto;html=1;exitX=0.5;exitY=1;exitDx=0;exitDy=0;entryX=0.5;entryY=0;entryDx=0;entryDy=0;fontSize=21;" edge="1" parent="1" source="YOS8QZTMdaJIHrAnO1hu-1" target="YOS8QZTMdaJIHrAnO1hu-6">
          <mxGeometry relative="1" as="geometry" />
        </mxCell>
        <mxCell id="YOS8QZTMdaJIHrAnO1hu-17" style="edgeStyle=orthogonalEdgeStyle;rounded=0;orthogonalLoop=1;jettySize=auto;html=1;exitX=0.5;exitY=1;exitDx=0;exitDy=0;entryX=0.5;entryY=0;entryDx=0;entryDy=0;fontSize=21;" edge="1" parent="1" source="YOS8QZTMdaJIHrAnO1hu-1" target="YOS8QZTMdaJIHrAnO1hu-5">
          <mxGeometry relative="1" as="geometry" />
        </mxCell>
        <mxCell id="YOS8QZTMdaJIHrAnO1hu-18" style="edgeStyle=orthogonalEdgeStyle;rounded=0;orthogonalLoop=1;jettySize=auto;html=1;fontSize=21;" edge="1" parent="1" target="YOS8QZTMdaJIHrAnO1hu-4">
          <mxGeometry relative="1" as="geometry">
            <mxPoint x="620" y="270" as="sourcePoint" />
          </mxGeometry>
        </mxCell>
        <mxCell id="YOS8QZTMdaJIHrAnO1hu-19" style="edgeStyle=orthogonalEdgeStyle;rounded=0;orthogonalLoop=1;jettySize=auto;html=1;fontSize=21;" edge="1" parent="1" target="YOS8QZTMdaJIHrAnO1hu-8">
          <mxGeometry relative="1" as="geometry">
            <mxPoint x="620" y="270" as="sourcePoint" />
          </mxGeometry>
        </mxCell>
        <mxCell id="YOS8QZTMdaJIHrAnO1hu-20" style="edgeStyle=orthogonalEdgeStyle;rounded=0;orthogonalLoop=1;jettySize=auto;html=1;entryX=0.442;entryY=-0.033;entryDx=0;entryDy=0;entryPerimeter=0;fontSize=21;exitX=0.5;exitY=1;exitDx=0;exitDy=0;" edge="1" parent="1" source="YOS8QZTMdaJIHrAnO1hu-1" target="YOS8QZTMdaJIHrAnO1hu-9">
          <mxGeometry relative="1" as="geometry" />
        </mxCell>
        <mxCell id="YOS8QZTMdaJIHrAnO1hu-1" value="总经办" style="rounded=0;whiteSpace=wrap;html=1;fontSize=21;" vertex="1" parent="1">
          <mxGeometry x="560" y="160" width="120" height="60" as="geometry" />
        </mxCell>
        <mxCell id="YOS8QZTMdaJIHrAnO1hu-3" value="采购部" style="rounded=0;whiteSpace=wrap;html=1;fontSize=21;shadow=0;" vertex="1" parent="1">
          <mxGeometry x="80" y="320" width="120" height="60" as="geometry" />
        </mxCell>
        <mxCell id="YOS8QZTMdaJIHrAnO1hu-4" value="质量部" style="rounded=0;whiteSpace=wrap;html=1;fontSize=21;shadow=0;" vertex="1" parent="1">
          <mxGeometry x="240" y="320" width="120" height="60" as="geometry" />
        </mxCell>
        <mxCell id="YOS8QZTMdaJIHrAnO1hu-5" value="财务部" style="rounded=0;whiteSpace=wrap;html=1;fontSize=21;shadow=0;" vertex="1" parent="1">
          <mxGeometry x="720" y="320" width="120" height="60" as="geometry" />
        </mxCell>
        <mxCell id="YOS8QZTMdaJIHrAnO1hu-6" value="销售部" style="rounded=0;whiteSpace=wrap;html=1;fontSize=21;shadow=0;" vertex="1" parent="1">
          <mxGeometry x="400" y="320" width="120" height="60" as="geometry" />
        </mxCell>
        <mxCell id="YOS8QZTMdaJIHrAnO1hu-7" value="仓储部" style="rounded=0;whiteSpace=wrap;html=1;fontSize=21;shadow=0;" vertex="1" parent="1">
          <mxGeometry x="560" y="320" width="120" height="60" as="geometry" />
        </mxCell>
        <mxCell id="YOS8QZTMdaJIHrAnO1hu-8" value="人事部" style="rounded=0;whiteSpace=wrap;html=1;fontSize=21;shadow=0;" vertex="1" parent="1">
          <mxGeometry x="880" y="320" width="120" height="60" as="geometry" />
        </mxCell>
        <mxCell id="YOS8QZTMdaJIHrAnO1hu-9" value="IT 部" style="rounded=0;whiteSpace=wrap;html=1;fontSize=21;shadow=0;" vertex="1" parent="1">
          <mxGeometry x="1040" y="320" width="120" height="60" as="geometry" />
        </mxCell>
      </root>
    </mxGraphModel>
  </diagram>
</mxfile>
